[img]http://img692.imageshack.us/img692/981/thedarkknightrisesb.jpg[/img]

[b][size=200][color=black]PLOT[/color][/size][/b]

[code]Eight years on, a new terrorist leader, Bane, overwhelms Gotham's finest, 
and the Dark Knight resurfaces to protect a city that has branded him an enemy.[/code]

[b][size=200][color=black]IMDB[/color][/size][/b]

[code]http://www.imdb.com/title/tt1345836/[/code]

[b][size=200][color=black]MOVIE INFO[/color][/size][/b]

[code]The Dark Knight Rises [2012] BRRip x264 AAC-V3nom

Format                                   : MPEG-4
Format profile                           : Base Media / Version 2
Codec ID                                 : mp42
File size                                : 352 MiB
Duration                                 : 2h 44mn
Overall bit rate mode                    : Variable
Overall bit rate                         : 299 Kbps
Encoded date                             : UTC 2012-11-20 19:20:07
Tagged date                              : UTC 2012-11-20 19:57:13

Video
ID                                       : 1
Format                                   : AVC
Format/Info                              : Advanced Video Codec
Format profile                           : Main@L2.1
Format settings, CABAC                   : Yes
Format settings, ReFrames                : 4 frames
Codec ID                                 : avc1
Codec ID/Info                            : Advanced Video Coding
Duration                                 : 2h 44mn
Bit rate mode                            : Variable
Bit rate                                 : 165 Kbps
Width                                    : 600 pixels
Height                                   : 248 pixels
Display aspect ratio                     : 2.40:1
Frame rate mode                          : Variable
Frame rate                               : 23.976 fps
Minimum frame rate                       : 23.974 fps
Maximum frame rate                       : 23.981 fps
Color space                              : YUV
Chroma subsampling                       : 4:2:0
Bit depth                                : 8 bits
Scan type                                : Progressive
Bits/(Pixel*Frame)                       : 0.046
Stream size                              : 195 MiB (55%)
Writing library                          : x264 

Audio
ID                                       : 2
Format                                   : AAC
Format/Info                              : Advanced Audio Codec
Format profile                           : LC
Codec ID                                 : 40
Duration                                 : 2h 44mn
Bit rate mode                            : Variable
Bit rate                                 : 128 Kbps
Maximum bit rate                         : 151 Kbps
Channel(s)                               : 2 channels
Channel positions                        : Front: L R
Sampling rate                            : 48.0 KHz
Compression mode                         : Lossy
Delay relative to video                  : 83ms
Stream size                              : 151 MiB (43%)
Encoded date                             : UTC 2012-11-20 19:20:07
Tagged date                              : UTC 2012-11-20 19:57:06[/code]

[b][size=200][color=black]SOURCE[/color][/size][/b]

[code]The Dark Knight Rises[2012]BRRip XviD-ETRG (Thanks)[/code]

[b][size=200][color=black]SCREENSHOTS[/color][/size][/b]

[img]http://img577.imageshack.us/img577/3379/thedarkknightrises2012b.jpg[/img]

[img]http://kastatic.com/i2/users/133df62bbf28e62494bb17fe11078f1a.gif[/img][img]http://kastatic.com/i2/users/133df62bbf28e62494bb17fe11078f1a.gif[/img]